<svg t="1699180107724" class="icon" viewBox="0 0 1024 1024" version="1.1" xmlns="http://www.w3.org/2000/svg" p-id="1470" width="200" height="200"><path d="M805.973333 407.466667A42.666667 42.666667 0 0 0 768 384h-213.333333V128a42.666667 42.666667 0 0 0-77.653334-24.32l-298.666666 426.666667a42.666667 42.666667 0 0 0-2.986667 42.666666A42.666667 42.666667 0 0 0 213.333333 597.333333h170.666667v298.666667a42.666667 42.666667 0 0 0 29.44 40.533333A47.786667 47.786667 0 0 0 426.666667 938.666667a42.666667 42.666667 0 0 0 34.56-17.493334l341.333333-469.333333a42.666667 42.666667 0 0 0 3.413333-44.373333z" fill="#66ccff" p-id="1471"></path></svg>