<svg class="icon" viewBox="0 0 1024 1024" version="1.1" xmlns="http://www.w3.org/2000/svg" width="36" height="36"><path d="M454.4 198.4h228.266667c61.866667 0 110.933333 17.066667 147.2 53.333333 34.133333 34.133333 53.333333 83.2 53.333333 147.2v228.266667c0 61.866667-17.066667 110.933333-53.333333 147.2-34.133333 34.133333-83.2 53.333333-147.2 53.333333h-228.266667c-8.533333 0-14.933333-2.133333-19.2-8.533333-6.4-6.4-8.533333-12.8-8.533333-19.2v-57.6c0-8.533333 2.133333-14.933333 8.533333-19.2 6.4-6.4 12.8-8.533333 19.2-8.533333h256a58.282667 58.282667 0 0 0 57.6-57.6v-283.733334a58.282667 58.282667 0 0 0-57.6-57.6h-256c-8.533333 0-14.933333-2.133333-19.2-8.533333-6.4-6.4-8.533333-12.8-8.533333-19.2v-57.6c0-8.533333 2.133333-14.933333 8.533333-19.2 4.266667-8.533333 12.8-12.8 19.2-12.8z m-119.466667 132.266667l183.466667 162.133333c6.4 4.266667 8.533333 10.666667 8.533333 19.2 0 6.4-2.133333 12.8-8.533333 19.2l-183.466667 162.133333c-6.4 4.266667-10.666667 6.4-14.933333 4.266667-4.266667-2.133333-6.4-6.4-6.4-14.933333v-85.333334h-142.933333c-8.533333 0-14.933333-2.133333-19.2-8.533333-6.4-6.4-8.533333-12.8-8.533334-19.2v-113.066667c0-8.533333 2.133333-14.933333 8.533334-19.2 6.4-6.4 12.8-8.533333 19.2-8.533333h142.933333v-85.333333c0-8.533333 2.133333-12.8 6.4-14.933334 4.266667-4.266667 8.533333-2.133333 14.933333 2.133334z" ></path></svg>